<?xml version="1.0" encoding="UTF-8"?>
<!DOCTYPE svg PUBLIC "-//W3C//DTD SVG 1.1//EN" "http://www.w3.org/Graphics/SVG/1.1/DTD/svg11.dtd">
<svg xmlns="http://www.w3.org/2000/svg" version="1.1" width="241px" height="236px" style="shape-rendering:geometricPrecision; text-rendering:geometricPrecision; image-rendering:optimizeQuality; fill-rule:evenodd; clip-rule:evenodd" xmlns:xlink="http://www.w3.org/1999/xlink">
<g><path style="opacity:0.991" fill="#dc2c00" d="M 96.5,-0.5 C 98.1667,-0.5 99.8333,-0.5 101.5,-0.5C 123.47,25.4354 144.97,51.7687 166,78.5C 175.136,90.4403 181.303,103.774 184.5,118.5C 153.349,120.837 133.849,137.17 126,167.5C 123.252,187.073 128.086,204.406 140.5,219.5C 138.287,220.773 135.954,221.773 133.5,222.5C 118.163,217.084 104.663,208.751 93,197.5C 95.5411,191.385 97.8744,185.052 100,178.5C 107.41,135.309 90.5766,106.309 49.5,91.5C 52.6719,54.2327 68.3385,23.5661 96.5,-0.5 Z"/></g>
<g><path style="opacity:0.988" fill="#ffc300" d="M 49.5,91.5 C 48.3647,132.971 62.3647,168.137 91.5,197C 83.8581,209.659 73.1914,218.826 59.5,224.5C 27.751,211.23 8.58431,187.564 2,153.5C -1.60925,131.55 2.22408,111.05 13.5,92C 25.4791,88.9004 37.4791,88.7337 49.5,91.5 Z"/></g>
<g><path style="opacity:1" fill="#fe9000" d="M 49.5,91.5 C 90.5766,106.309 107.41,135.309 100,178.5C 97.8744,185.052 95.5411,191.385 93,197.5C 104.663,208.751 118.163,217.084 133.5,222.5C 115.485,231.388 96.4845,233.888 76.5,230C 70.4698,228.917 64.8031,227.084 59.5,224.5C 73.1914,218.826 83.8581,209.659 91.5,197C 62.3647,168.137 48.3647,132.971 49.5,91.5 Z"/></g>
<g><path style="opacity:0.015" fill="#000000" d="M 240.5,149.5 C 240.5,153.833 240.5,158.167 240.5,162.5C 237.837,154.175 233.837,146.508 228.5,139.5C 228.5,138.833 228.167,138.5 227.5,138.5C 225.833,137.5 224.5,136.167 223.5,134.5C 223.5,133.833 223.167,133.5 222.5,133.5C 222.5,132.833 222.167,132.5 221.5,132.5C 221.5,131.833 221.167,131.5 220.5,131.5C 219.508,131.672 218.842,131.338 218.5,130.5C 218.5,129.833 218.167,129.5 217.5,129.5C 217.5,128.833 217.167,128.5 216.5,128.5C 216.167,128.5 215.833,128.5 215.5,128.5C 215.5,127.833 215.167,127.5 214.5,127.5C 213.508,127.672 212.842,127.338 212.5,126.5C 212.167,125.167 211.833,125.167 211.5,126.5C 210.833,126.5 210.5,126.167 210.5,125.5C 210.167,124.167 209.833,124.167 209.5,125.5C 208.833,125.5 208.5,125.167 208.5,124.5C 208.158,123.662 207.492,123.328 206.5,123.5C 206.167,123.5 205.833,123.5 205.5,123.5C 205.167,122.167 204.833,122.167 204.5,123.5C 203.833,123.167 203.167,122.833 202.5,122.5C 202.158,121.662 201.492,121.328 200.5,121.5C 200.167,121.5 199.833,121.5 199.5,121.5C 198.833,120.167 198.167,120.167 197.5,121.5C 196.609,120.89 195.609,120.557 194.5,120.5C 193.5,119.167 192.5,119.167 191.5,120.5C 189.883,119.962 188.216,119.629 186.5,119.5C 186.5,118.833 186.167,118.5 185.5,118.5C 185.62,117.414 186.287,116.747 187.5,116.5C 211.022,118.009 228.688,129.009 240.5,149.5 Z"/></g>
<g><path style="opacity:0.999" fill="#fdfdfd" d="M 185.5,119.5 C 185.833,119.5 186.167,119.5 186.5,119.5C 188.216,119.629 189.883,119.962 191.5,120.5C 192.5,120.5 193.5,120.5 194.5,120.5C 195.609,120.557 196.609,120.89 197.5,121.5C 198.167,121.5 198.833,121.5 199.5,121.5C 199.833,121.5 200.167,121.5 200.5,121.5C 200.842,122.338 201.508,122.672 202.5,122.5C 203.167,122.833 203.833,123.167 204.5,123.5C 204.833,123.5 205.167,123.5 205.5,123.5C 205.833,123.5 206.167,123.5 206.5,123.5C 206.842,124.338 207.508,124.672 208.5,124.5C 208.5,125.167 208.833,125.5 209.5,125.5C 209.833,125.5 210.167,125.5 210.5,125.5C 210.5,126.167 210.833,126.5 211.5,126.5C 211.833,126.5 212.167,126.5 212.5,126.5C 212.842,127.338 213.508,127.672 214.5,127.5C 215.167,127.5 215.5,127.833 215.5,128.5C 215.833,128.5 216.167,128.5 216.5,128.5C 217.167,128.5 217.5,128.833 217.5,129.5C 218.167,129.5 218.5,129.833 218.5,130.5C 218.842,131.338 219.508,131.672 220.5,131.5C 221.167,131.5 221.5,131.833 221.5,132.5C 222.167,132.5 222.5,132.833 222.5,133.5C 223.167,133.5 223.5,133.833 223.5,134.5C 224.5,136.167 225.833,137.5 227.5,138.5C 228.167,138.5 228.5,138.833 228.5,139.5C 233.837,146.508 237.837,154.175 240.5,162.5C 240.5,171.167 240.5,179.833 240.5,188.5C 229.066,221.228 206.066,235.062 171.5,230C 161.89,227.201 153.556,222.367 146.5,215.5C 124.902,190.577 124.068,164.91 144,138.5C 155.396,126.654 169.229,120.321 185.5,119.5 Z"/></g>
<g><path style="opacity:1" fill="#d12802" d="M 184.5,118.5 C 184.833,118.5 185.167,118.5 185.5,118.5C 185.5,118.833 185.5,119.167 185.5,119.5C 169.229,120.321 155.396,126.654 144,138.5C 124.068,164.91 124.902,190.577 146.5,215.5C 145.128,216.512 143.795,217.512 142.5,218.5C 141.833,218.5 141.5,218.833 141.5,219.5C 141.167,219.5 140.833,219.5 140.5,219.5C 128.086,204.406 123.252,187.073 126,167.5C 133.849,137.17 153.349,120.837 184.5,118.5 Z"/></g>
<g><path style="opacity:1" fill="#61656a" d="M 182.5,145.5 C 186.131,145.16 189.464,145.994 192.5,148C 198.67,151.919 205.003,155.586 211.5,159C 212.126,159.75 212.626,160.584 213,161.5C 213.667,171.167 213.667,180.833 213,190.5C 204.533,196.985 195.367,202.318 185.5,206.5C 176.885,202.526 168.551,198.026 160.5,193C 159.299,192.097 158.465,190.931 158,189.5C 157.333,180.167 157.333,170.833 158,161.5C 159.167,160.333 160.333,159.167 161.5,158C 168.894,154.311 175.894,150.144 182.5,145.5 Z"/></g>
<g><path style="opacity:1" fill="#fcfcfc" d="M 183.5,151.5 C 184.873,151.343 186.207,151.51 187.5,152C 193.833,155.5 200.167,159 206.5,162.5C 207.665,171.147 207.832,179.814 207,188.5C 200.193,193.14 193.026,197.14 185.5,200.5C 178.29,196.643 171.123,192.643 164,188.5C 163.168,179.814 163.335,171.147 164.5,162.5C 171.06,159.059 177.393,155.392 183.5,151.5 Z"/></g>
<g><path style="opacity:1" fill="#5f6368" d="M 184.5,163.5 C 187.649,169.138 192.316,173.304 198.5,176C 192.777,178.22 188.444,182.054 185.5,187.5C 183.957,184.914 182.291,182.414 180.5,180C 178.112,178.139 175.446,176.806 172.5,176C 178.757,173.912 182.757,169.745 184.5,163.5 Z"/></g>
<g><path style="opacity:0.086" fill="#010101" d="M 240.5,188.5 C 240.5,195.167 240.5,201.833 240.5,208.5C 233.726,220.608 224.059,229.608 211.5,235.5C 194.167,235.5 176.833,235.5 159.5,235.5C 152.542,231.738 146.209,226.904 140.5,221C 141.056,220.617 141.389,220.117 141.5,219.5C 142.167,219.5 142.5,219.167 142.5,218.5C 143.795,217.512 145.128,216.512 146.5,215.5C 153.556,222.367 161.89,227.201 171.5,230C 206.066,235.062 229.066,221.228 240.5,188.5 Z"/></g>
</svg>
